#!OML:ASF H:\Terrain\Patient Classification 1\Walking\steve\steve.ASF
:FULLY-SPECIFIED
:DEGREES
1
root 5.72523 15.2374 -44.999 5.01582 -1.96962 -1.21357
lowerback 0.0673355 2.75578 4.71124
upperback -1.52074 3.74694 2.23627
thorax -1.4506 1.82601 -0.380854
lowerneck -9.78536 -1.11678 -2.33129
upperneck 21.0236 -0.83073 -1.24301
head 8.12617 -0.688027 -0.101624
rclavicle 2.05742e-014 4.29375e-014
rhumerus -22.8386 -14.6593 -80.3594
rradius 23.979
rwrist 8.49154
rhand -16.2602 -34.8115
rfingers 7.12502
rthumb 9.94911 -64.5564
lclavicle 2.05742e-014 4.29375e-014
lhumerus -35.4592 3.48416 88.2397
lradius 19.8071
lwrist 3.62045
lhand -22.6641 -15.3746
lfingers 7.12502
lthumb 3.76749 14.5719
rfemur -21.0927 2.87051 26.9328
rtibia 37.1805
rfoot -17.1295 13.3942
rtoes 11.3104
lfemur -28.8905 8.55037 -20.2542
ltibia 64.0229
lfoot 0 0
ltoes 0
2
root 5.72634 15.2366 -44.8711 5.29393 -1.66407 -1.45063
lowerback 0.0494742 2.78542 5.04941
upperback -1.69901 3.79592 2.1629
thorax -1.59655 1.84008 -0.647187
lowerneck -9.07863 -0.979244 -2.61082
upperneck 20.3864 -0.774669 -0.513528
head 7.78843 -0.605187 0.19772
rclavicle -7.35503e-015 2.06736e-014
rhumerus -22.0231 -13.9835 -80.8858
rradius 24.6918
rwrist 7.73017
rhand -16.6987 -35.0444
rfingers 7.12502
rthumb 9.52611 -64.8091
lclavicle -7.35503e-015 2.06736e-014
lhumerus -36.3837 3.3003 88.1421
lradius 19.6754
lwrist 3.57369
lhand -22.0499 -15.5837
lfingers 7.12502
lthumb 4.36063 14.3514
rfemur -20.7018 2.77915 27.1097
rtibia 37.157
rfoot -17.2336 13.8935
rtoes 13.8847
lfemur -30.3831 8.51912 -20.3035
ltibia 63.2653
lfoot -10.0418 1.15058
ltoes -16.0324
3
root 5.72556 15.2259 -44.7452 5.2748 -1.57186 -1.64411
lowerback 0.379256 2.86103 5.25893
upperback -1.80073 3.9273 2.1013
thorax -1.86294 1.89456 -0.848099
lowerneck -10.1661 -1.21876 -2.26046
upperneck 21.5544 -1.03888 -0.905842
head 8.37607 -0.75277 -0.026602
rclavicle -1.93815e-015 1.19271e-014
rhumerus -21.2558 -12.8275 -81.4639
rradius 25.6979
rwrist 6.50081
rhand -17.0919 -35.4999
rfingers 7.12502
rthumb 9.14662 -65.2816
lclavicle -1.93815e-015 1.19271e-014
lhumerus -37.426 2.65418 88.2886
lradius 19.7704
lwrist 4.0008
lhand -21.575 -15.764
lfingers 7.12502
lthumb 4.81915 14.1612
rfemur -19.8684 2.86911 27.249
rtibia 36.9047
rfoot -17.1922 14.5137
rtoes 16.7345
lfemur -31.4263 8.40764 -20.211
ltibia 62.0699
lfoot -10.3433 0.88293
ltoes -3.96384
4
root 5.72495 15.2149 -44.6101 5.25505 -1.60485 -1.8398
lowerback 0.624392 2.92171 5.44144
upperback -2.00324 4.03906 2.06059
thorax -2.18952 1.93614 -1.01205
lowerneck -9.97948 -1.19966 -2.27105
upperneck 21.8501 -1.04488 -0.755523
head 8.44236 -0.743017 0.0249765
rclavicle 1.06723e-014 1.03368e-014
rhumerus -20.7833 -11.5263 -81.9502
rradius 26.8989
rwrist 5.79632
rhand -15.8683 -36.8495
rfingers 7.12502
rthumb 10.3272 -66.5759
lclavicle 1.06723e-014 1.03368e-014
lhumerus -38.8492 1.94607 88.5007
lradius 19.943
lwrist 4.79856
lhand -22.4708 -14.9371
lfingers 7.12502
lthumb 3.9541 15.006
rfemur -19.0864 2.83058 27.4734
rtibia 36.4761
rfoot -17.69 14.5739
rtoes 12.4216
lfemur -32.3076 8.22775 -20.0412
ltibia 60.6772
lfoot -10.8469 1.70715
ltoes -19.874
5
root 5.72801 15.2377 -44.4636 5.29074 -1.74603 -1.8755
lowerback 0.958467 2.97314 5.62448
upperback -2.2523 4.146 1.88802
thorax -2.60458 1.96968 -1.31897
lowerneck -9.88242 -1.23715 -2.22776
upperneck 22.0774 -1.12221 -0.681617
head 8.502 -0.770072 0.0343693
rclavicle 1.49958e-014 9.54166e-015
rhumerus -20.2438 -10.5802 -82.477
rradius 27.5015
rwrist 4.62059
rhand -16.2666 -36.8629
rfingers 7.12502
rthumb 9.94298 -66.6081
lclavicle 1.49958e-014 9.54166e-015
lhumerus -40.2037 1.56542 88.4509
lradius 19.8385
lwrist 5.75102
lhand -23.0667 -15.5317
lfingers 7.12502
lthumb 3.37867 14.4212
rfemur -18.309 2.57088 27.5086
rtibia 35.9856
rfoot -17.7594 15.1087
rtoes 11.5151
lfemur -32.89 7.97799 -20.0415
ltibia 58.949
lfoot -11.3076 0.89939
ltoes -3.23805
6
root 5.73607 15.2655 -44.3193 5.28056 -1.85092 -2.0371
lowerback 0.059954 3.03135 5.63733
upperback -1.76484 4.13247 2.13708
thorax -1.61344 1.99758 -1.00153
lowerneck -9.69646 -1.13213 -2.25765
upperneck 21.3725 -0.90305 -1.04435
head 8.2272 -0.69887 -0.0558215
rclavicle -3.10104e-014 -9.54166e-015
rhumerus -18.7146 -9.317 -82.5515
rradius 27.7837
rwrist 3.13743
rhand -17.4836 -35.3283
rfingers 7.12502
rthumb 8.76866 -65.1262
lclavicle -3.10104e-014 -9.54166e-015
lhumerus -40.523 2.38096 88.4398
lradius 19.8867
lwrist 4.93003
lhand -22.6426 -15.225
lfingers 7.12502
lthumb 3.78824 14.721
rfemur -17.4973 2.10588 27.6833
rtibia 35.5215
rfoot -17.8985 15.4459
rtoes 11.7492
lfemur -33.3797 7.76058 -19.8701
ltibia 57.0798
lfoot -11.474 2.09875
ltoes -20.3447
7
root 5.74642 15.2526 -44.1779 5.15898 -1.99808 -2.27709
lowerback 0.197829 3.16505 5.82574
upperback -1.62414 4.31662 2.20425
thorax -1.52701 2.0913 -1.04043
lowerneck -10.0864 -1.20951 -2.13856
upperneck 21.3372 -0.975992 -1.25232
head 8.28554 -0.745067 -0.154766
rclavicle -5.51627e-015 -1.03368e-014
rhumerus -17.6782 -8.40655 -82.6918
rradius 28.2798
rwrist 1.90938
rhand -18.6344 -33.9584
rfingers 7.12502
rthumb 7.65807 -63.7997
lclavicle -5.51627e-015 -1.03368e-014
lhumerus -41.3458 2.139 88.6143
lradius 20.1154
lwrist 5.04409
lhand -22.437 -15.0237
lfingers 7.12502
lthumb 3.98675 14.9188
rfemur -16.6277 1.76101 27.9554
rtibia 35.1446
rfoot -18.4874 15.3462
rtoes 10.5501
lfemur -33.8956 7.84804 -19.6128
ltibia 55.2205
lfoot -11.6131 1.85305
ltoes -17.9943
8
root 5.75344 15.2408 -44.0328 5.08768 -2.31623 -2.22886
lowerback 0.6018 3.29118 5.77548
upperback -1.7159 4.51989 2.10055
thorax -1.83185 2.18339 -1.1491
lowerneck -10.3438 -1.23814 -2.19388
upperneck 21.4117 -1.02846 -1.10817
head 8.35919 -0.761411 -0.104836
rclavicle -6.37353e-015 -3.65764e-014
rhumerus -16.9571 -7.37754 -82.9864
rradius 28.8708
rwrist 0.801779
rhand -19.1693 -33.5528
rfingers 7.12502
rthumb 7.1417 -63.4123
lclavicle -6.37353e-015 -3.65764e-014
lhumerus -42.4591 1.77193 88.6392
lradius 20.3285
lwrist 5.4853
lhand -22.4183 -14.2443
lfingers 7.12502
lthumb 4.00486 15.6978
rfemur -15.8869 1.56704 27.9033
rtibia 34.9157
rfoot -18.6232 15.6852
rtoes 10.5212
lfemur -34.2997 7.93211 -19.6471
ltibia 53.2473
lfoot -12.055 1.30576
ltoes -16.548
9
root 5.75822 15.2412 -43.8901 5.21804 -2.46957 -2.30506
lowerback 0.548528 3.31776 5.73684
upperback -1.64018 4.54723 2.15257
thorax -1.72909 2.20181 -1.06868
lowerneck -11.1326 -1.1033 -2.44471
upperneck 21.9009 -0.820596 -0.838602
head 8.67235 -0.662466 0.0425542
rclavicle -1.73191e-014 -1.43125e-014
rhumerus -15.8884 -6.29365 -83.1435
rradius 29.4783
rwrist -0.0256221
rhand -18.5665 -34.8843
rfingers 7.12502
rthumb 7.72355 -64.7232
lclavicle -1.73191e-014 -1.43125e-014
lhumerus -43.1249 2.04259 88.5672
lradius 20.2318
lwrist 5.50996
lhand -23.0271 -13.383
lfingers 7.12502
lthumb 3.41692 16.5693
rfemur -15.366 1.42706 27.9651
rtibia 34.6866
rfoot -17.963 16.3257
rtoes 13.3247
lfemur -34.8745 7.6131 -19.4974
ltibia 51.2142
lfoot -13.13 0.658327
ltoes -13.7946
10
root 5.76421 15.2353 -43.7509 5.38286 -2.46079 -2.54018
lowerback 0.241347 3.47916 5.94501
upperback -1.82168 4.74915 2.10696
thorax -1.7126 2.29668 -1.21692
lowerneck -10.4472 -1.12862 -2.21224
upperneck 21.964 -0.941003 -0.749832
head 8.56604 -0.689344 0.024562
rclavicle 3.42034e-014 1.11319e-014
rhumerus -15.6908 -5.8608 -83.1098
rradius 30.2965
rwrist -0.600836
rhand -18.3194 -36.1823
rfingers 7.12502
rthumb 7.96203 -66.0123
lclavicle 3.42034e-014 1.11319e-014
lhumerus -44.4719 1.56269 88.6701
lradius 20.3253
lwrist 5.70831
lhand -23.8793 -12.9128
lfingers 7.12502
lthumb 2.59393 17.0512
rfemur -14.7091 1.25682 28.1846
rtibia 34.1053
rfoot -17.6737 16.533
rtoes 14.8959
lfemur -35.5984 7.28406 -19.243
ltibia 49.2494
lfoot -15.1507 3.43129
ltoes -35.9762
